<svg width="56" height="56" viewBox="0 0 56 56" fill="none" xmlns="http://www.w3.org/2000/svg">
<rect width="56" height="56" fill="white"/>
<path fill-rule="evenodd" clip-rule="evenodd" d="M0 56H56V0H0V56Z" fill="url(#paint0_linear)"/>
<path d="M45.5925 10H37.6554C37.323 9.99925 37.0027 10.1275 36.7597 10.3586C36.5167 10.5897 36.3692 10.9065 36.347 11.2444L35.3004 27.5111H28.6715V22.3556C28.6659 22.1153 28.5967 21.8811 28.4712 21.6776C28.3457 21.4742 28.1686 21.309 27.9586 21.1998C27.7486 21.0905 27.5135 21.041 27.2781 21.0567C27.0428 21.0724 26.8161 21.1526 26.6218 21.2889L19.6441 26.3111V22.3556C19.6385 22.1153 19.5693 21.8811 19.4438 21.6776C19.3183 21.4742 19.1411 21.309 18.9311 21.1998C18.7211 21.0905 18.486 21.041 18.2507 21.0567C18.0154 21.0724 17.7886 21.1526 17.5944 21.2889L8.52333 27.7778C8.36084 27.902 8.22896 28.063 8.13812 28.2482C8.04729 28.4333 8 28.6375 8 28.8444V44.6667C8 45.0203 8.13784 45.3594 8.3832 45.6095C8.62856 45.8595 8.96134 46 9.30832 46H47.6858C47.8673 45.9978 48.0462 45.9571 48.2114 45.8806C48.3766 45.8041 48.5243 45.6934 48.6453 45.5556C48.7717 45.4297 48.8687 45.2765 48.9291 45.1072C48.9895 44.9379 49.0117 44.757 48.9942 44.5778L46.9008 11.2444C46.8604 10.9136 46.7073 10.6078 46.4682 10.3804C46.2291 10.1529 45.9191 10.0183 45.5925 10ZM26.9707 43.3333H17.9869V38.4889H26.9707V43.3333Z" fill="white"/>
<g opacity="0.6" filter="url(#filter0_f)">
<path d="M45.5925 10H37.6554C37.323 9.99925 37.0027 10.1275 36.7597 10.3586C36.5167 10.5897 36.3692 10.9065 36.347 11.2444L35.3004 27.5111H28.6715V22.3556C28.6659 22.1153 28.5967 21.8811 28.4712 21.6776C28.3457 21.4742 28.1686 21.309 27.9586 21.1998C27.7486 21.0905 27.5135 21.041 27.2781 21.0567C27.0428 21.0724 26.8161 21.1526 26.6218 21.2889L19.6441 26.3111V22.3556C19.6385 22.1153 19.5693 21.8811 19.4438 21.6776C19.3183 21.4742 19.1411 21.309 18.9311 21.1998C18.7211 21.0905 18.486 21.041 18.2507 21.0567C18.0154 21.0724 17.7886 21.1526 17.5944 21.2889L8.52333 27.7778C8.36084 27.902 8.22896 28.063 8.13812 28.2482C8.04729 28.4333 8 28.6375 8 28.8444V44.6667C8 45.0203 8.13784 45.3594 8.3832 45.6095C8.62856 45.8595 8.96134 46 9.30832 46H47.6858C47.8673 45.9978 48.0462 45.9571 48.2114 45.8806C48.3766 45.8041 48.5243 45.6934 48.6453 45.5556C48.7717 45.4297 48.8687 45.2765 48.9291 45.1072C48.9895 44.9379 49.0117 44.757 48.9942 44.5778L46.9008 11.2444C46.8604 10.9136 46.7073 10.6078 46.4682 10.3804C46.2291 10.1529 45.9191 10.0183 45.5925 10ZM26.9707 43.3333H17.9869V38.4889H26.9707V43.3333Z" fill="white"/>
</g>
<defs>
<filter id="filter0_f" x="4" y="6" width="49" height="44" filterUnits="userSpaceOnUse" color-interpolation-filters="sRGB">
<feFlood flood-opacity="0" result="BackgroundImageFix"/>
<feBlend mode="normal" in="SourceGraphic" in2="BackgroundImageFix" result="shape"/>
<feGaussianBlur stdDeviation="2" result="effect1_foregroundBlur"/>
</filter>
<linearGradient id="paint0_linear" x1="53.8125" y1="59.9375" x2="28.6765" y2="-6.08711" gradientUnits="userSpaceOnUse">
<stop stop-color="#1990F2"/>
<stop offset="1" stop-color="#0056FF"/>
</linearGradient>
</defs>
</svg>
